<svg width="72" height="70" viewBox="0 0 72 70" fill="none" xmlns="http://www.w3.org/2000/svg">
<path d="M0.805038 22.6816L13.2874 12.3067C13.5203 12.1141 13.814 12.0102 14.1162 12.0135C14.4185 12.0168 14.7098 12.1271 14.9385 12.3247L27.9011 23.5402C28.1314 23.7364 28.4241 23.8442 28.7267 23.8442C29.0292 23.8442 29.3219 23.7364 29.5522 23.5402L57.6329 0.304698C57.8642 0.108002 58.1579 0 58.4615 0C58.7651 0 59.0588 0.108002 59.29 0.304698L71.4541 10.9798C71.5929 11.102 71.7036 11.2529 71.7784 11.422C71.8533 11.5911 71.8906 11.7745 71.8877 11.9594C71.8849 12.1443 71.842 12.3264 71.7619 12.4931C71.6819 12.6599 71.5666 12.8072 71.4241 12.9251L29.3961 47.5862C29.1652 47.7786 28.8741 47.884 28.5735 47.884C28.273 47.884 27.9819 47.7786 27.751 47.5862L0.805038 24.6329C0.66337 24.5129 0.549541 24.3634 0.471472 24.1949C0.393404 24.0264 0.35297 23.843 0.35297 23.6573C0.35297 23.4716 0.393404 23.2881 0.471472 23.1196C0.549541 22.9511 0.66337 22.8017 0.805038 22.6816Z" fill="#45A5A3"/>
<path d="M71.2495 14.7383C71.664 14.7383 72 15.0743 72 15.4888V33.2847C72 33.5075 71.901 33.7188 71.7297 33.8614L29.1529 69.3121C29.0205 69.4238 28.849 69.4905 28.6623 69.4888C28.6427 69.4886 28.6231 69.4877 28.6036 69.486C28.4432 69.4721 28.2975 69.4079 28.182 69.3093L14.0076 57.415C13.9858 57.3986 13.9648 57.381 13.9449 57.3624L0.268075 45.8856C0.0981414 45.743 0 45.5325 0 45.3107V26.7944C0 26.3799 0.33601 26.0439 0.7505 26.0439C1.16499 26.0439 1.501 26.3799 1.501 26.7944V44.9607L13.7072 55.2034V39.1026C13.7072 38.6881 14.0432 38.3521 14.4577 38.3521C14.8722 38.3521 15.2082 38.6881 15.2082 39.1026V56.463L27.933 67.1409L28.0868 50.1191C28.0905 49.7047 28.4295 49.3717 28.844 49.3754C29.2585 49.3792 29.5914 49.7182 29.5877 50.1327L29.4342 67.1247L42.2983 56.4137V39.1026C42.2983 38.6881 42.6343 38.3521 43.0488 38.3521C43.4633 38.3521 43.7993 38.6881 43.7993 39.1026V55.1639L56.5097 44.5808V27.4068C56.5097 26.9923 56.8457 26.6563 57.2602 26.6563C57.6747 26.6563 58.0107 26.9923 58.0107 27.4068V43.331L70.499 32.933V15.4888C70.499 15.0743 70.835 14.7383 71.2495 14.7383Z" fill="#45A5A3"/>
<path fill-rule="evenodd" clip-rule="evenodd" d="M61.5628 32.2025C61.158 30.9412 61.0727 29.3332 61.3593 27.6644C61.6458 25.9955 62.2627 24.5081 63.065 23.4541C63.8424 22.433 64.9432 21.6466 66.1807 21.8591C67.4181 22.0716 68.1935 23.1802 68.5857 24.4021C68.9905 25.6634 69.0758 27.2714 68.7892 28.9402C68.5027 30.6091 67.8858 32.0965 67.0835 33.1505C66.3061 34.1717 65.2053 34.9581 63.9678 34.7456C62.7304 34.5331 61.955 33.4245 61.5628 32.2025ZM62.9984 31.7418C63.3276 32.7676 63.8191 33.1902 64.223 33.2596C64.627 33.3289 65.2312 33.0945 65.8838 32.2372C66.5113 31.4129 67.0492 30.1644 67.3032 28.6851C67.5573 27.2058 67.4667 25.8494 67.1501 24.8629C66.8209 23.837 66.3294 23.4144 65.9255 23.3451C65.5216 23.2757 64.9173 23.5102 64.2647 24.3674C63.6372 25.1918 63.0993 26.4402 62.8453 27.9196C62.5912 29.3989 62.6818 30.7553 62.9984 31.7418Z" fill="#45A5A3"/>
<path d="M54.2976 33.4986C54.5608 33.8188 54.5146 34.2917 54.1944 34.5549L47.4819 40.0726C47.1618 40.3358 46.6888 40.2896 46.4256 39.9694C46.1624 39.6492 46.2086 39.1763 46.5288 38.9131L53.2413 33.3954C53.5615 33.1322 54.0344 33.1784 54.2976 33.4986Z" fill="#45A5A3"/>
<path d="M3.34129 33.6063C3.60466 33.2863 4.07762 33.2403 4.39768 33.5037L11.1102 39.0274C11.4302 39.2908 11.4762 39.7637 11.2128 40.0838C10.9494 40.4038 10.4764 40.4498 10.1564 40.1864L3.44392 34.6627C3.12386 34.3994 3.07791 33.9264 3.34129 33.6063Z" fill="#45A5A3"/>
<path fill-rule="evenodd" clip-rule="evenodd" d="M39.4141 44.7319C39.6792 44.8549 39.8489 45.1205 39.8489 45.4128V53.8904C39.8489 54.1111 39.7517 54.3207 39.5833 54.4633L33.0929 59.9569C32.8699 60.1457 32.5575 60.1879 32.2923 60.0649C32.0272 59.942 31.8576 59.6763 31.8576 59.3841V50.9064C31.8576 50.6857 31.9547 50.4762 32.1232 50.3336L38.6135 44.8399C38.8366 44.6511 39.149 44.609 39.4141 44.7319ZM33.3586 51.2544V57.7656L38.3479 53.5424V47.0313L33.3586 51.2544Z" fill="#45A5A3"/>
<path d="M17.6664 45.5919C17.8187 45.3129 18.1524 44.9144 18.7029 44.9144C19.2535 44.9144 19.5871 45.3129 19.7395 45.5919C19.9072 45.8992 19.9878 46.2724 19.9878 46.6436C19.9878 47.0148 19.9072 47.388 19.7395 47.6953C19.5871 47.9743 19.2535 48.3727 18.7029 48.3727C18.1524 48.3727 17.8187 47.9743 17.6664 47.6953C17.4986 47.388 17.4181 47.0148 17.4181 46.6436C17.4181 46.2724 17.4986 45.8992 17.6664 45.5919Z" fill="#45A5A3"/>
<path d="M20.4878 48.0956C20.6401 47.8165 20.9738 47.4181 21.5243 47.4181C22.0749 47.4181 22.4085 47.8165 22.5609 48.0956C22.7286 48.4028 22.8092 48.7761 22.8092 49.1473C22.8092 49.5185 22.7286 49.8917 22.5609 50.1989C22.4085 50.478 22.0749 50.8764 21.5243 50.8764C20.9738 50.8764 20.6401 50.478 20.4878 50.1989C20.32 49.8917 20.2395 49.5185 20.2395 49.1473C20.2395 48.7761 20.32 48.4028 20.4878 48.0956Z" fill="#45A5A3"/>
<path d="M23.556 50.4071C23.7084 50.1281 24.042 49.7296 24.5926 49.7296C25.1431 49.7296 25.4768 50.1281 25.6291 50.4071C25.7969 50.7144 25.8774 51.0876 25.8774 51.4588C25.8774 51.83 25.7969 52.2032 25.6291 52.5105C25.4768 52.7895 25.1431 53.1879 24.5926 53.1879C24.042 53.1879 23.7084 52.7895 23.556 52.5105C23.3883 52.2032 23.3077 51.83 23.3077 51.4588C23.3077 51.0876 23.3883 50.7144 23.556 50.4071Z" fill="#45A5A3"/>
<path fill-rule="evenodd" clip-rule="evenodd" d="M17.0292 37.6933L16.932 37.6076L16.4999 38.0019L16.3844 37.9035L16.7098 37.4154L16.2665 37.803L13.5948 35.5272L12.7712 34.5275C12.5147 33.9478 12.3247 33.6565 12.0833 33.2864C11.8897 32.9895 11.663 32.6418 11.3423 32.0539C10.8476 30.995 10.2158 30.0059 9.46301 29.1119C9.20988 28.7908 9.34426 29.1115 9.52507 29.5431C9.63161 29.7974 9.75425 30.0901 9.82326 30.3127C9.91632 30.6129 9.99137 30.763 10.0664 30.9131C10.1415 31.0632 10.2165 31.2133 10.3096 31.5135C10.3432 31.764 10.4056 32.0098 10.4957 32.246C10.5248 32.2988 10.5612 32.3473 10.6038 32.3901L8.36221 31.07L3.42711 26.8661L1.13546 24.0865L0.45078 24.1468C0.413 24.0556 0.385972 23.9605 0.370117 23.8634L0.955342 23.4922L0.602894 22.8984C0.661607 22.8187 0.729536 22.746 0.805462 22.6816L0.890806 22.6107L1.68183 22.9278L1.76718 21.8823L2.11234 21.5954L3.1468 22.0572L2.93987 20.9076L2.94676 20.9018L3.33293 21.9912L3.82525 20.8924L5.31424 22.6456L7.55374 22.1232L9.04273 23.8764L10.2856 23.192L10.0634 24.6089H11.4984L12.2969 29.202L15.2989 32.7263L16.1935 37.2653L17.3403 36.8571L17.039 37.6839L17.1241 37.7577L16.914 38.0158L17.0292 37.6933ZM9.71947 25.2264C9.77057 25.3538 9.82218 25.4825 9.96735 25.7076V25.6896C10.0832 25.8658 10.2949 26.0312 10.4768 26.1734C10.7663 26.3996 10.9807 26.5673 10.6158 26.6262C10.2564 26.6843 10.1911 26.4812 10.1055 26.2147C10.0494 26.0404 9.98468 25.8389 9.82326 25.6656C9.61736 25.4446 9.49545 25.3533 9.37205 25.261C9.25075 25.1702 9.12801 25.0783 8.92266 24.8611C8.87457 24.8104 8.83715 24.747 8.79961 24.6834C8.74809 24.5961 8.69633 24.5084 8.61644 24.4528C8.53831 24.3984 8.44288 24.3787 8.34646 24.3587C8.27247 24.3434 8.1979 24.328 8.13012 24.2967C7.83387 24.1661 7.68879 24.045 7.55924 23.9369C7.37898 23.7864 7.22878 23.661 6.7432 23.5702C6.49248 23.5233 6.27915 23.5138 6.09751 23.5057C5.67454 23.4869 5.42343 23.4757 5.27222 23.0178C5.14015 22.6179 5.42728 22.7852 5.82268 23.0156C6.07437 23.1622 6.36991 23.3344 6.62912 23.4021C6.95757 23.4879 7.12998 23.5066 7.30015 23.5251C7.47528 23.5441 7.64803 23.5629 7.98603 23.6543C8.27042 23.7676 8.53259 23.9302 8.76054 24.1346C9.02913 24.2905 9.26715 24.4939 9.46301 24.735C9.61508 24.9661 9.66701 25.0956 9.71947 25.2264Z" fill="#52C1B9"/>
<path fill-rule="evenodd" clip-rule="evenodd" d="M6.47801 17.9668L6.62312 18.6349L5.77055 19.1693L6.8933 18.5148L11.3002 21.3607L16.1034 21.8771C16.9276 21.3366 17.2754 21.5664 17.93 21.9988C18.148 22.1429 18.4001 22.3094 18.7152 22.4775C19.5285 22.9386 20.4101 23.267 21.3269 23.4501C21.342 23.4526 21.3614 23.4192 21.3841 23.38C21.4155 23.3258 21.4532 23.2605 21.495 23.264C21.5358 23.2674 21.5401 23.3421 21.5437 23.4062C21.5464 23.4553 21.5489 23.4982 21.5671 23.4982C22.2402 23.6544 22.5855 23.6798 22.9326 23.7054C23.2789 23.7309 23.6272 23.7565 24.3049 23.9124C24.8133 24.0294 25.3833 23.9753 25.866 23.9294C26.6716 23.8529 27.2343 23.7995 26.8626 24.6029C26.486 25.417 26.0588 25.1946 25.4389 24.872C25.0804 24.6854 24.6576 24.4653 24.1428 24.3928C23.454 24.2956 23.1101 24.1927 22.773 24.0918C22.4224 23.9869 22.0791 23.8842 21.3629 23.7924C21.3089 23.7924 21.2482 23.8368 21.1877 23.881C21.1205 23.9302 21.0536 23.9791 20.9967 23.9665C20.9403 23.9539 20.9035 23.8826 20.8668 23.8112C20.8331 23.7458 20.7994 23.6804 20.7505 23.6603C20.1564 23.4129 19.844 23.3414 19.528 23.269C19.215 23.1973 18.8985 23.1247 18.3009 22.8797C18.1071 22.8004 17.906 22.7401 17.7005 22.6996L20.7926 24.723L23.6685 24.3988L25.992 26.1039L27.9313 24.729L25.8018 21.7234L22.5144 18.8792L19.1655 16.9718L17.043 14.1453L14.9389 12.3247C14.9163 12.3052 14.893 12.2865 14.8692 12.2686L14.2482 12.6309L13.8754 12.0338C13.7589 12.0549 13.6459 12.092 13.5397 12.144V12.8711L12.0914 13.3011L9.94081 15.0886L9.25287 16.4435L7.78886 16.8772L6.47801 17.9668ZM9.63862 19.3023C9.21147 19.4452 8.91818 19.5433 8.5384 19.0192V18.9952C8.1823 18.5426 8.60766 18.6034 9.20709 18.6891C9.57792 18.7421 10.0154 18.8046 10.3756 18.761C10.841 18.7047 11.081 18.7054 11.3189 18.7062C11.5629 18.707 11.8046 18.7077 12.2849 18.6469C12.5983 18.5659 12.8767 18.3846 13.0774 18.1306C13.335 17.932 13.5189 17.6531 13.5998 17.3381C13.6429 16.9641 13.6406 16.7651 13.6383 16.5735C13.6359 16.3652 13.6335 16.1655 13.6898 15.759C13.7125 15.2342 13.8221 14.7169 14.014 14.228C14.0729 14.0562 14.1358 14.2534 14.1962 14.4427C14.2097 14.485 14.223 14.5269 14.2362 14.5642C14.2677 14.6534 14.2739 14.7139 14.2795 14.7678C14.2867 14.8373 14.2928 14.8958 14.3503 14.9905C14.3837 15.0455 14.4248 15.0986 14.4661 15.1519C14.5509 15.2614 14.6363 15.3716 14.6565 15.5008C14.6766 15.6298 14.6237 15.7561 14.5704 15.8833C14.5443 15.9456 14.5181 16.0081 14.5004 16.0712C14.4305 16.3111 14.4298 16.4373 14.429 16.5648C14.4283 16.6895 14.4276 16.8154 14.3623 17.0499C14.2962 17.287 14.2347 17.3981 14.1732 17.5092C14.1116 17.6202 14.0501 17.7313 13.984 17.9685C13.9367 18.2874 13.7871 18.5824 13.5577 18.809C13.2769 18.9672 12.9533 19.0324 12.6331 18.9952C12.1175 18.9952 11.8594 19.0266 11.6008 19.0581C11.3415 19.0896 11.0818 19.1212 10.5617 19.1212C10.1801 19.1212 9.88676 19.2193 9.63862 19.3023Z" fill="#52C1B9"/>
<path d="M30.8544 22.463L31.2335 23.228L30.1768 24.2967L31.6178 24.6809L33.2148 29.214L34.3796 30.2467C34.5338 29.936 34.641 29.6042 34.6978 29.262C34.8089 28.5115 34.9215 28.1438 35.0341 27.776C35.1466 27.4083 35.2592 27.0405 35.3703 26.29C35.3911 26.1515 35.3259 26.0129 35.2613 25.8755C35.2139 25.7747 35.1668 25.6746 35.1541 25.5755C35.1413 25.4758 35.1634 25.3651 35.1856 25.2542C35.2154 25.1048 35.2453 24.9551 35.1902 24.831C34.9762 24.3128 34.8152 24.0758 34.654 23.8385C34.494 23.603 34.3338 23.3671 34.1215 22.8557C33.9665 22.4771 33.7276 22.2039 33.5264 21.9738C33.2521 21.66 33.0477 21.4263 33.2209 21.1146L32.0874 21.4428L30.8544 22.463Z" fill="#52C1B9"/>
<path fill-rule="evenodd" clip-rule="evenodd" d="M34.0793 19.7946L33.6411 20.6403C34.0702 20.3881 34.2158 20.9247 34.4091 21.6377C34.4782 21.8924 34.5534 22.1696 34.6498 22.4415C34.8586 23.1163 35.1859 23.7486 35.6164 24.3087C35.6826 24.417 35.7649 24.5207 35.8474 24.6245C36.0118 24.8315 36.1769 25.0395 36.2168 25.2873C36.2574 25.5387 36.1556 25.7901 36.0537 26.0415C36.0048 26.1624 35.9558 26.2832 35.9227 26.4041C35.7261 27.1287 35.6786 27.5135 35.6324 27.8879C35.5841 28.2797 35.5372 28.6599 35.3223 29.4061C35.2011 29.9294 35.1706 30.4696 35.2322 31.0032L36.8112 32.4381L38.4083 36.9711L39.9934 36.803L40.5938 38.268L41.3022 37.0072L44.0494 35.5018L49.0431 31.3834L51.0407 28.9798L53.7836 27.4739L56.4315 25.2901L56.0721 24.3988L56.7505 22.8857L55.2015 22.9578C55.9176 23.3495 55.0556 23.0261 54.1 22.6676C53.6935 22.5151 53.2701 22.3562 52.944 22.2433C52.4326 22.0663 52.1369 22.0195 51.855 21.9748C51.5345 21.924 51.2318 21.8761 50.6505 21.6429C50.2845 21.4953 50.1434 21.363 49.9904 21.2197C49.8572 21.0949 49.715 20.9616 49.4076 20.8024C49.128 20.6584 48.7983 20.5013 48.5169 20.3673C47.9887 20.1156 47.6305 19.945 48.0928 20.0939C49.158 20.4279 49.5954 20.661 50.1149 20.9379C50.4826 21.1339 50.8914 21.3518 51.5931 21.6429C52.3619 21.9619 52.8274 22.0803 53.2449 22.1865C53.7467 22.3142 54.179 22.4242 54.9854 22.8437L53.6525 21.0065L51.2509 21.2407L49.8279 19.2773L49.2755 20.3521L49.5457 19.1513L49.1435 20.286L46.7419 18.5328L43.8239 19.1332L41.4223 17.3801L41.0621 18.5268L41.3263 17.3561L40.8579 18.4608L40.6298 17.0919L39.5491 17.9625L39.3149 16.5936L38.3903 17.5122L38.0292 16.5262L37.8551 16.6703L37.7299 17.4882L36.4035 17.8715L34.0793 19.7946ZM41.8073 35.3861C42.1143 35.1309 42.4256 34.8721 43.0794 34.4194L43.0734 34.4014C43.5758 34.0575 44.0918 33.4952 44.5317 33.0157C45.2591 32.2231 45.7787 31.6569 45.6852 32.6783C45.5906 33.7108 45.1316 33.8523 44.4716 34.0557C44.0838 34.1752 43.6267 34.3161 43.1335 34.6716C42.467 35.1519 42.1113 35.3621 41.7555 35.5722C41.3998 35.7823 41.0441 35.9925 40.3776 36.4728C40.3471 36.4952 40.318 36.5285 40.2886 36.5622C40.2313 36.628 40.1729 36.6949 40.1014 36.6829C40.0312 36.6712 39.9939 36.5936 39.9566 36.5159C39.9366 36.4741 39.9165 36.4323 39.8913 36.4008L39.8192 36.3107L39.7292 36.2086C39.4764 35.994 39.2396 35.7612 39.0207 35.5122C38.8971 35.3404 38.7713 35.2351 38.6652 35.1463C38.4674 34.9808 38.3382 34.8727 38.4203 34.4975C38.5173 34.0543 38.7136 34.4346 38.9574 34.907C39.0307 35.049 39.1083 35.1993 39.1888 35.338C39.3417 35.6496 39.5311 35.9419 39.7532 36.2086L39.8433 36.3107C39.8877 36.3477 39.9687 36.3345 40.0468 36.3218C40.0953 36.3138 40.1427 36.3061 40.1795 36.3107C40.2128 36.3149 40.2512 36.3306 40.2909 36.3468C40.3656 36.3775 40.4449 36.41 40.5037 36.3707C41.1798 35.9078 41.4913 35.6488 41.8073 35.3861Z" fill="#52C1B9"/>
<path fill-rule="evenodd" clip-rule="evenodd" d="M40.5108 14.4728L40.912 15.0745L40.1975 16.3294L41.4824 15.8791L44.2082 17.6383L47.3963 17.0379L50.1221 18.797L50.5244 17.6623L50.1942 18.821L50.8426 17.8124L52.5838 20.256L55.5858 20.6523L57.3269 23.1019L58.4677 21.9972L59.4364 22.8119L59.7363 22.5646L59.9567 21.6249L61.7273 20.9226L64.6278 18.5305L65.6665 16.9118L67.4469 16.2055L68.7881 15.0994L68.3503 14.7503L68.6865 13.3874L67.4016 13.9278L65.7805 11.4121L62.8206 10.8958L61.1935 8.37407L60.473 9.34672L60.6111 8.14592L60.3469 9.34672L56.2402 8.30803L52.2295 9.67094L48.1228 8.63825L47.5644 9.68295L47.6439 8.57053L47.6255 8.58569L47.4804 9.40676L46.1494 9.80712L43.7411 11.7999L43.0974 13.0332L41.7669 13.4334L40.5108 14.4728ZM58.1735 10.2593C58.2515 10.2413 58.2515 10.4274 58.2515 10.4875V10.4695C58.255 10.4886 58.2665 10.5147 58.2789 10.5429C58.3095 10.6123 58.3456 10.6943 58.2816 10.7156C57.8158 10.8699 57.2695 10.9977 56.6998 11.1311C56.1164 11.2676 55.5084 11.41 54.9373 11.5922C54.1422 11.8448 53.3897 12.1235 52.8024 12.3409C52.1612 12.5784 51.7169 12.7429 51.6291 12.721C51.068 12.5282 50.4886 12.3934 49.9 12.3187C49.591 12.2909 49.2645 12.3172 48.9475 12.3426C48.6486 12.3667 48.3581 12.39 48.0988 12.3667C48.0534 12.3626 48.0704 12.2819 48.0855 12.2104C48.0923 12.1778 48.0988 12.1472 48.0988 12.1266C48.0988 12.1061 48.0907 12.0747 48.082 12.041C48.0628 11.9662 48.0408 11.8804 48.0988 11.8804C49.3227 11.6876 49.9583 11.6398 50.5787 11.5931C51.2334 11.5438 51.8713 11.4958 53.1661 11.28C54.4103 11.0726 55.0333 10.9208 55.6474 10.7712C56.2779 10.6175 56.899 10.4662 58.1735 10.2593Z" fill="#52C1B9"/>
<path d="M55.9206 1.72194L56.3302 2.38808L55.3336 3.42678L56.7145 3.48681L57.0207 5.35406L58.912 5.43211L59.2242 7.30536L60.0647 6.44078L59.6204 7.56354L60.1788 6.48881L60.419 6.75899C60.3439 6.62882 60.2763 6.51544 60.2097 6.40382C60.0153 6.07782 59.8298 5.76677 59.4944 5.09589C59.2529 4.61533 58.8284 4.20089 58.4657 3.84685C57.8633 3.25874 57.4315 2.83728 58.2936 2.55619C59.3051 2.22635 59.479 2.79529 59.764 3.72737C59.8681 4.06776 59.9869 4.45658 60.1668 4.86773C60.5665 5.78709 60.8013 6.03317 61.1864 6.4369C61.3797 6.6396 61.6109 6.88202 61.92 7.26934C61.9255 7.27671 61.9312 7.2842 61.9369 7.29177C62.006 7.38282 62.0849 7.48685 62.0461 7.57554C62.0047 7.67012 61.8585 7.6774 61.7394 7.68334L61.7339 7.68361C61.6774 7.68644 61.6421 7.71317 61.605 7.74133C61.5633 7.77302 61.5192 7.80651 61.4397 7.80969H61.3976L61.7038 8.15193L63.8773 7.55152L65.3843 9.23865L65.9847 8.19395L65.5104 9.31069L66.465 8.5662L66.5371 10.4635L68.4103 10.7757L68.4823 12.6729L69.5631 12.0005L70.0074 13.2013L69.9713 11.9284L70.7579 12.835L69.9593 11.5262L70.8613 10.4592L70.7116 10.3278L69.533 10.1573L68.1792 8.10541L65.1487 5.44587L62.9407 4.3694L61.588 2.32106L59.7823 0.736357L58.966 0.947122L58.5972 0.00717061C58.5524 0.00241166 58.5073 0 58.4619 0C58.3749 0 58.2887 0.00886607 58.2046 0.0261441L57.8613 0.875077L57.2467 0.6246L56.7306 1.05172L56.8586 1.70362L56.245 1.45352L55.9206 1.72194Z" fill="#52C1B9"/>
<path fill-rule="evenodd" clip-rule="evenodd" d="M31.7559 42.4168L31.5157 41.27L31.3116 40.0632L29.5644 40.5735L28.6398 39.0005L17.7065 37.0312L17.1061 37.7397L20.5824 40.7416L25.5057 40.9698L30.1288 42.735L30.7292 41.4561L31.7559 42.4168ZM28.0908 41.2126C28.2532 41.2237 28.415 41.2348 28.7118 41.306V41.288C28.9397 41.3411 29.1977 41.3192 29.4192 41.3004C29.7989 41.2682 30.0713 41.2451 29.9006 41.6242C29.7302 42.0029 29.5311 41.8991 29.2446 41.7497C29.0769 41.6623 28.8792 41.5592 28.6398 41.5282C28.3202 41.4867 28.161 41.4409 28.0042 41.3958C27.8428 41.3493 27.6838 41.3036 27.3549 41.264C27.3287 41.2611 27.3011 41.2822 27.2734 41.3033C27.2441 41.3258 27.2147 41.3482 27.1868 41.3421C27.1589 41.3358 27.1406 41.2975 27.1236 41.2619C27.1077 41.2287 27.093 41.198 27.0728 41.198C26.8031 41.0828 26.6572 41.0502 26.508 41.0169C26.3614 40.9842 26.2116 40.9507 25.938 40.8377C25.7299 40.7518 25.4528 40.7161 25.2171 40.6857C24.8271 40.6355 24.5505 40.5999 24.8873 40.3754C25.2938 40.1044 25.4523 40.2106 25.7615 40.4179C25.8633 40.4861 25.9814 40.5653 26.1301 40.6456C26.5031 40.859 26.9089 41.0091 27.3309 41.0899C27.3386 41.0924 27.3473 41.0766 27.3575 41.058C27.3715 41.0328 27.3882 41.0024 27.409 41.0058C27.445 41.0118 27.445 41.1139 27.445 41.1139C27.7577 41.1898 27.9246 41.2012 28.0908 41.2126Z" fill="#52C1B9"/>
</svg>
