<svg width="287" height="54" viewBox="0 0 287 54" fill="none" xmlns="http://www.w3.org/2000/svg">
<path d="M0.625598 17.626L10.3256 9.56358C10.5067 9.41391 10.7349 9.33319 10.9697 9.33576C11.2046 9.33832 11.431 9.42399 11.6087 9.57758L21.682 18.2932C21.861 18.4457 22.0884 18.5294 22.3236 18.5294C22.5587 18.5294 22.7861 18.4457 22.9651 18.2932L44.7867 0.236782C44.9664 0.0839286 45.1947 0 45.4306 0C45.6665 0 45.8948 0.0839286 46.0745 0.236782L55.5272 8.53245C55.6351 8.62743 55.7211 8.74467 55.7793 8.87609C55.8374 9.00751 55.8664 9.14998 55.8642 9.29368C55.862 9.43738 55.8286 9.5789 55.7664 9.70846C55.7042 9.83802 55.6147 9.95255 55.5039 10.0442L22.8438 36.9794C22.6644 37.129 22.4382 37.2108 22.2046 37.2108C21.971 37.2108 21.7448 37.129 21.5654 36.9794L0.625598 19.1423C0.515507 19.049 0.42705 18.9329 0.366383 18.802C0.305715 18.671 0.274294 18.5285 0.274294 18.3841C0.274294 18.2398 0.305715 18.0973 0.366383 17.9663C0.42705 17.8354 0.515507 17.7193 0.625598 17.626Z" fill="white"/>
<path d="M55.3682 11.4532C55.6903 11.4532 55.9514 11.7143 55.9514 12.0364V25.8656C55.9514 26.0388 55.8745 26.203 55.7414 26.3138L22.6548 53.8627C22.552 53.9495 22.4187 54.0013 22.2736 54C22.2583 53.9998 22.2431 53.9991 22.228 53.9978C22.1033 53.987 21.9901 53.9371 21.9004 53.8605L10.8854 44.6174C10.8684 44.6046 10.8521 44.591 10.8366 44.5765L0.208322 35.6579C0.076266 35.5471 0 35.3835 0 35.2111V20.822C0 20.4999 0.261115 20.2388 0.583216 20.2388C0.905318 20.2388 1.16643 20.4999 1.16643 20.822V34.9391L10.6519 42.8988V30.3867C10.6519 30.0646 10.913 29.8035 11.2351 29.8035C11.5572 29.8035 11.8183 30.0646 11.8183 30.3867V43.8776L21.7068 52.1754L21.8263 38.9478C21.8292 38.6257 22.0927 38.3669 22.4148 38.3698C22.7369 38.3727 22.9956 38.6362 22.9927 38.9583L22.8734 52.1628L32.8702 43.8393V30.3867C32.8702 30.0646 33.1313 29.8035 33.4534 29.8035C33.7755 29.8035 34.0366 30.0646 34.0366 30.3867V42.868L43.9139 34.6439V21.2979C43.9139 20.9758 44.175 20.7147 44.4971 20.7147C44.8192 20.7147 45.0803 20.9758 45.0803 21.2979V33.6727L54.785 25.5923V12.0364C54.785 11.7143 55.0461 11.4532 55.3682 11.4532Z" fill="white"/>
<path fill-rule="evenodd" clip-rule="evenodd" d="M47.8407 25.0247C47.5261 24.0445 47.4598 22.795 47.6825 21.4981C47.9052 20.2012 48.3845 19.0453 49.0081 18.2263C49.6121 17.4328 50.4676 16.8216 51.4292 16.9868C52.3908 17.1519 52.9934 18.0134 53.2982 18.963C53.6127 19.9431 53.679 21.1927 53.4563 22.4896C53.2336 23.7864 52.7543 24.9423 52.1308 25.7614C51.5267 26.5549 50.6712 27.166 49.7096 27.0009C48.748 26.8358 48.1454 25.9743 47.8407 25.0247ZM48.9563 24.6666C49.2121 25.4638 49.594 25.7922 49.9079 25.8461C50.2218 25.9 50.6914 25.7178 51.1985 25.0517C51.6862 24.411 52.1042 23.4409 52.3016 22.2913C52.499 21.1417 52.4286 20.0876 52.1826 19.321C51.9267 18.5238 51.5448 18.1954 51.2309 18.1415C50.917 18.0876 50.4474 18.2698 49.9403 18.936C49.4526 19.5766 49.0347 20.5468 48.8373 21.6964C48.6399 22.846 48.7102 23.9 48.9563 24.6666Z" fill="white"/>
<path d="M42.1949 26.0319C42.3994 26.2807 42.3635 26.6482 42.1147 26.8527L36.8984 31.1406C36.6496 31.3451 36.282 31.3092 36.0775 31.0604C35.873 30.8115 35.9089 30.444 36.1577 30.2395L41.374 25.9517C41.6228 25.7471 41.9903 25.783 42.1949 26.0319Z" fill="white"/>
<path d="M2.59652 26.1156C2.80119 25.8669 3.16873 25.8312 3.41745 26.0358L8.63374 30.3283C8.88245 30.533 8.91816 30.9005 8.71349 31.1492C8.50883 31.398 8.14128 31.4337 7.89257 31.229L2.67628 26.9365C2.42756 26.7319 2.39186 26.3643 2.59652 26.1156Z" fill="white"/>
<path fill-rule="evenodd" clip-rule="evenodd" d="M30.6288 34.7613C30.8349 34.8569 30.9667 35.0633 30.9667 35.2904V41.8784C30.9667 42.05 30.8912 42.2128 30.7603 42.3236L25.7166 46.5927C25.5433 46.7395 25.3005 46.7722 25.0945 46.6767C24.8885 46.5812 24.7566 46.3747 24.7566 46.1476V39.5596C24.7566 39.3881 24.8321 39.2252 24.963 39.1144L30.0067 34.8453C30.18 34.6985 30.4228 34.6658 30.6288 34.7613ZM25.9231 39.83V44.8898L29.8003 41.608V36.5482L25.9231 39.83Z" fill="white"/>
<path d="M13.7286 35.4296C13.847 35.2128 14.1063 34.9032 14.5341 34.9032C14.9619 34.9032 15.2212 35.2128 15.3396 35.4296C15.47 35.6684 15.5326 35.9584 15.5326 36.2469C15.5326 36.5354 15.47 36.8254 15.3396 37.0642C15.2212 37.281 14.9619 37.5906 14.5341 37.5906C14.1063 37.5906 13.847 37.281 13.7286 37.0642C13.5982 36.8254 13.5356 36.5354 13.5356 36.2469C13.5356 35.9584 13.5982 35.6684 13.7286 35.4296Z" fill="white"/>
<path d="M15.9211 37.3752C16.0395 37.1584 16.2988 36.8488 16.7266 36.8488C17.1545 36.8488 17.4137 37.1584 17.5321 37.3752C17.6625 37.614 17.7251 37.904 17.7251 38.1925C17.7251 38.481 17.6625 38.771 17.5321 39.0098C17.4137 39.2266 17.1545 39.5362 16.7266 39.5362C16.2988 39.5362 16.0395 39.2266 15.9211 39.0098C15.7907 38.771 15.7282 38.481 15.7282 38.1925C15.7282 37.904 15.7907 37.614 15.9211 37.3752Z" fill="white"/>
<path d="M18.3055 39.1715C18.4239 38.9547 18.6831 38.6451 19.111 38.6451C19.5388 38.6451 19.7981 38.9547 19.9165 39.1715C20.0469 39.4103 20.1094 39.7004 20.1094 39.9888C20.1094 40.2773 20.0469 40.5673 19.9165 40.8061C19.7981 41.0229 19.5388 41.3325 19.111 41.3325C18.6831 41.3325 18.4239 41.0229 18.3055 40.8061C18.1751 40.5673 18.1125 40.2773 18.1125 39.9888C18.1125 39.7004 18.1751 39.4103 18.3055 39.1715Z" fill="white"/>
<path fill-rule="evenodd" clip-rule="evenodd" d="M13.2339 29.2916L13.1584 29.225L12.8226 29.5314L12.7329 29.455L12.9857 29.0757L12.6412 29.3769L10.565 27.6083L9.92502 26.8315C9.72568 26.381 9.57805 26.1546 9.39047 25.867C9.23999 25.6362 9.0638 25.3661 8.81458 24.9092C8.43017 24.0863 7.93916 23.3177 7.3542 22.623C7.1575 22.3734 7.26193 22.6227 7.40243 22.958C7.48522 23.1556 7.58053 23.3831 7.63415 23.5561C7.70647 23.7894 7.76479 23.906 7.82311 24.0227C7.88143 24.1393 7.93976 24.256 8.01207 24.4893C8.03818 24.6839 8.08671 24.8749 8.15671 25.0585C8.17936 25.0995 8.20762 25.1372 8.24069 25.1705L6.49877 24.1446L2.66368 20.8778L0.882839 18.7177L0.350769 18.7645C0.321411 18.6937 0.300407 18.6198 0.288086 18.5444L0.742866 18.2558L0.468977 17.7944C0.514604 17.7325 0.567392 17.676 0.626394 17.626L0.692715 17.5708L1.30742 17.8173L1.37375 17.0048L1.64197 16.7819L2.44585 17.1407L2.28505 16.2474L2.29041 16.2429L2.5905 17.0894L2.97308 16.2356L4.13018 17.598L5.87051 17.1921L7.02761 18.5544L7.99341 18.0226L7.82078 19.1237H8.93589L9.55643 22.6929L11.8893 25.4317L12.5845 28.959L13.4756 28.6418L13.2416 29.2843L13.3077 29.3416L13.1444 29.5422L13.2339 29.2916ZM7.5535 19.6035C7.59321 19.7025 7.63332 19.8025 7.74612 19.9775V19.9635C7.83618 20.1004 8.00064 20.2289 8.14206 20.3395C8.36697 20.5153 8.53362 20.6455 8.25002 20.6914C7.97075 20.7365 7.92002 20.5787 7.85345 20.3715C7.80991 20.2361 7.7596 20.0795 7.63415 19.9448C7.47415 19.7731 7.37941 19.7022 7.28352 19.6304C7.18926 19.5598 7.09387 19.4885 6.93429 19.3196C6.89692 19.2803 6.86785 19.231 6.83867 19.1816C6.79863 19.1137 6.75841 19.0455 6.69634 19.0024C6.63562 18.9601 6.56145 18.9448 6.48653 18.9293C6.42903 18.9174 6.37108 18.9054 6.31841 18.881C6.08819 18.7796 5.97545 18.6855 5.87478 18.6014C5.7347 18.4845 5.61797 18.3871 5.24063 18.3165C5.04579 18.28 4.88001 18.2727 4.73886 18.2664C4.41017 18.2517 4.21503 18.243 4.09753 17.8872C3.99489 17.5765 4.21803 17.7065 4.52529 17.8855C4.72088 17.9994 4.95054 18.1332 5.15198 18.1859C5.40722 18.2525 5.5412 18.2671 5.67344 18.2815C5.80953 18.2962 5.94378 18.3108 6.20644 18.3818C6.42743 18.4699 6.63117 18.5963 6.80832 18.7551C7.01704 18.8762 7.202 19.0343 7.3542 19.2216C7.47238 19.4013 7.51273 19.5019 7.5535 19.6035Z" fill="#9DDCD8"/>
<path fill-rule="evenodd" clip-rule="evenodd" d="M5.03455 13.9621L5.14732 14.4813L4.48478 14.8965L5.35727 14.3879L8.78192 16.5995L12.5145 17.0008C13.155 16.5808 13.4253 16.7594 13.9339 17.0954C14.1034 17.2073 14.2993 17.3368 14.5441 17.4673C15.1761 17.8257 15.8612 18.0808 16.5737 18.2232C16.5854 18.2251 16.6005 18.1992 16.6181 18.1687C16.6425 18.1266 16.6718 18.0758 16.7043 18.0785C16.736 18.0812 16.7393 18.1392 16.7421 18.189C16.7443 18.2272 16.7462 18.2605 16.7603 18.2605C17.2834 18.3819 17.5517 18.4017 17.8214 18.4215C18.0906 18.4413 18.3612 18.4613 18.8879 18.5824C19.283 18.6734 19.7259 18.6313 20.1011 18.5957C20.7271 18.5362 21.1643 18.4947 20.8755 19.119C20.5828 19.7516 20.2508 19.5788 19.7691 19.3281C19.4905 19.1831 19.1619 19.0121 18.7619 18.9557C18.2267 18.8802 17.9594 18.8002 17.6974 18.7218C17.425 18.6403 17.1582 18.5605 16.6017 18.4891C16.5597 18.4891 16.5125 18.5237 16.4655 18.558C16.4132 18.5962 16.3613 18.6343 16.3171 18.6244C16.2733 18.6147 16.2447 18.5592 16.2161 18.5038C16.1899 18.4529 16.1637 18.4021 16.1258 18.3865C15.664 18.1943 15.4213 18.1387 15.1758 18.0824C14.9325 18.0267 14.6865 17.9703 14.2222 17.7799C14.0715 17.7183 13.9153 17.6714 13.7556 17.64L16.1584 19.2123L18.3933 18.9604L20.199 20.2854L21.706 19.217L20.0511 16.8814L17.4965 14.6711L14.894 13.1889L13.2447 10.9923L11.6095 9.57759C11.5919 9.5624 11.5739 9.54787 11.5554 9.53402L11.0728 9.81553L10.7831 9.35152C10.6925 9.36788 10.6047 9.39672 10.5222 9.43717V10.0022L9.39674 10.3363L7.72551 11.7254L7.1909 12.7783L6.05322 13.1154L5.03455 13.9621ZM7.49067 14.9999C7.15873 15.1109 6.93081 15.1871 6.63569 14.7799V14.7612C6.35896 14.4095 6.68951 14.4568 7.15533 14.5234C7.4435 14.5645 7.78343 14.6131 8.0634 14.5792C8.42506 14.5355 8.61158 14.5361 8.79645 14.5366C8.98603 14.5372 9.17388 14.5378 9.5471 14.4906C9.79068 14.4277 10.007 14.2867 10.163 14.0893C10.3631 13.935 10.506 13.7183 10.5689 13.4735C10.6024 13.1828 10.6006 13.0282 10.5989 12.8793C10.597 12.7175 10.5951 12.5623 10.6389 12.2464C10.6565 11.8386 10.7416 11.4365 10.8908 11.0566C10.9366 10.9232 10.9855 11.0764 11.0324 11.2235C11.0428 11.2563 11.0532 11.2889 11.0635 11.3179C11.0879 11.3872 11.0928 11.4342 11.0971 11.4761C11.1027 11.5301 11.1074 11.5756 11.1521 11.6492C11.1781 11.6919 11.2101 11.7332 11.2421 11.7746C11.308 11.8597 11.3744 11.9453 11.3901 12.0457C11.4057 12.146 11.3646 12.2441 11.3232 12.343C11.3029 12.3914 11.2825 12.4399 11.2688 12.489C11.2145 12.6754 11.2139 12.7735 11.2133 12.8726C11.2128 12.9695 11.2122 13.0673 11.1614 13.2495C11.1101 13.4338 11.0623 13.5201 11.0145 13.6064C10.9666 13.6928 10.9188 13.7791 10.8675 13.9634C10.8307 14.2112 10.7145 14.4404 10.5362 14.6166C10.318 14.7395 10.0665 14.7901 9.81771 14.7612C9.41704 14.7612 9.21641 14.7856 9.0155 14.8101C8.814 14.8346 8.6122 14.8592 8.20803 14.8592C7.91143 14.8592 7.6835 14.9354 7.49067 14.9999Z" fill="#9DDCD8"/>
<path d="M23.9776 17.4561L24.2721 18.0506L23.451 18.881L24.5707 19.1797L25.8118 22.7023L26.717 23.5048C26.8368 23.2634 26.9201 23.0055 26.9643 22.7396C27.0506 22.1564 27.1381 21.8706 27.2255 21.5848C27.313 21.2991 27.4005 21.0133 27.4868 20.4301C27.503 20.3224 27.4523 20.2147 27.4021 20.1079C27.3653 20.0296 27.3287 19.9518 27.3189 19.8749C27.3089 19.7973 27.3261 19.7113 27.3433 19.6251C27.3665 19.5091 27.3897 19.3927 27.3469 19.2963C27.1806 18.8935 27.0555 18.7094 26.9302 18.525C26.8059 18.3419 26.6814 18.1587 26.5164 17.7613C26.3959 17.4671 26.2103 17.2548 26.0539 17.0759C25.8408 16.8321 25.6819 16.6504 25.8165 16.4082L24.9357 16.6633L23.9776 17.4561Z" fill="#9DDCD8"/>
<path fill-rule="evenodd" clip-rule="evenodd" d="M26.4836 15.3824L26.1431 16.0396C26.4766 15.8437 26.5897 16.2607 26.7399 16.8147C26.7936 17.0127 26.852 17.2281 26.9269 17.4393C27.0892 17.9638 27.3436 18.4551 27.6781 18.8904C27.7296 18.9746 27.7935 19.0551 27.8576 19.1358C27.9853 19.2967 28.1136 19.4583 28.1447 19.6509C28.1762 19.8462 28.0971 20.0416 28.0179 20.237C27.9799 20.3309 27.9418 20.4248 27.9161 20.5187C27.7633 21.0818 27.7264 21.3809 27.6906 21.6718C27.653 21.9763 27.6165 22.2718 27.4495 22.8516C27.3554 23.2582 27.3317 23.678 27.3795 24.0927L28.6066 25.2078L29.8477 28.7304L31.0794 28.5998L31.546 29.7382L32.0966 28.7584L34.2314 27.5886L38.112 24.3882L39.6644 22.5203L41.7958 21.3501L43.8536 19.653L43.5743 18.9604L44.1015 17.7846L42.8977 17.8406C43.4542 18.145 42.7843 17.8937 42.0418 17.6151C41.7259 17.4965 41.3968 17.3731 41.1434 17.2854C40.746 17.1478 40.5162 17.1114 40.2972 17.0767C40.0481 17.0373 39.8129 17 39.3611 16.8188C39.0767 16.704 38.9671 16.6013 38.8482 16.4899C38.7447 16.3929 38.6341 16.2893 38.3953 16.1656C38.178 16.0537 37.9218 15.9317 37.7031 15.8275C37.2926 15.6319 37.0143 15.4994 37.3735 15.615C38.2013 15.8746 38.5412 16.0557 38.9449 16.2709C39.2307 16.4232 39.5484 16.5926 40.0936 16.8188C40.6911 17.0667 41.0528 17.1587 41.3772 17.2412C41.7672 17.3404 42.1032 17.4259 42.7298 17.7519L41.694 16.3242L39.8277 16.5062L38.7219 14.9805L38.2927 15.8157L38.5026 14.8825L38.19 15.7643L36.3237 14.4019L34.0562 14.8685L32.1899 13.5061L31.9099 14.3973L32.1152 13.4875L31.7513 14.346L31.574 13.2822L30.7342 13.9587L30.5522 12.8949L29.8337 13.6088L29.5531 12.8426L29.4178 12.9546L29.3205 13.5901L28.2897 13.888L26.4836 15.3824ZM32.4891 27.4987C32.7277 27.3003 32.9695 27.0992 33.4776 26.7475L33.473 26.7335C33.8633 26.4662 34.2643 26.0292 34.6062 25.6566C35.1715 25.0407 35.5752 24.6007 35.5026 25.3944C35.4291 26.1968 35.0724 26.3067 34.5595 26.4648C34.2582 26.5577 33.903 26.6672 33.5196 26.9434C33.0017 27.3167 32.7253 27.48 32.4488 27.6433C32.1724 27.8066 31.8959 27.9699 31.3781 28.3431C31.3544 28.3605 31.3317 28.3865 31.3089 28.4126C31.2643 28.4637 31.219 28.5157 31.1634 28.5065C31.1088 28.4974 31.0799 28.437 31.0509 28.3767C31.0353 28.3442 31.0197 28.3117 31.0001 28.2872L30.9441 28.2172L30.8742 28.1379C30.6777 27.9711 30.4937 27.7902 30.3236 27.5966C30.2275 27.4631 30.1298 27.3813 30.0473 27.3123C29.8936 27.1837 29.7932 27.0997 29.857 26.8081C29.9324 26.4637 30.0849 26.7593 30.2744 27.1263C30.3314 27.2367 30.3917 27.3535 30.4542 27.4613C30.573 27.7035 30.7202 27.9306 30.8928 28.1379L30.9628 28.2172C30.9973 28.246 31.0603 28.2357 31.121 28.2258C31.1587 28.2196 31.1955 28.2136 31.2241 28.2172C31.25 28.2204 31.2798 28.2326 31.3106 28.2453C31.3687 28.2691 31.4303 28.2943 31.476 28.2638C32.0014 27.9041 32.2435 27.7028 32.4891 27.4987Z" fill="#9DDCD8"/>
<path fill-rule="evenodd" clip-rule="evenodd" d="M31.4816 11.2469L31.7933 11.7145L31.2381 12.6896L32.2365 12.3397L34.3548 13.7068L36.8323 13.2402L38.9505 14.6072L39.2631 13.7254L39.0065 14.6259L39.5104 13.8421L40.8635 15.741L43.1964 16.0489L44.5494 17.9526L45.4359 17.0941L46.1887 17.7272L46.4218 17.535L46.593 16.8048L47.969 16.259L50.2229 14.4001L51.0301 13.1422L52.4137 12.5934L53.4559 11.7338L53.1157 11.4625L53.377 10.4034L52.3785 10.8233L51.1187 8.86839L48.8185 8.46713L47.5541 6.50753L46.9942 7.26338L47.1016 6.33023L46.8963 7.26338L43.7049 6.45621L40.5882 7.51533L37.3968 6.71282L36.9629 7.52466L37.0247 6.6602L37.0104 6.67198L36.8976 7.31004L35.8633 7.62116L33.9919 9.16972L33.4916 10.1281L32.4577 10.4392L31.4816 11.2469ZM45.2073 7.97257C45.2679 7.95857 45.2679 8.10321 45.2679 8.14987V8.13587C45.2706 8.15071 45.2796 8.171 45.2892 8.19292C45.3129 8.24683 45.341 8.31058 45.2913 8.32717C44.9294 8.44703 44.5048 8.5464 44.0621 8.65002C43.6087 8.75614 43.1362 8.86672 42.6924 9.00836C42.0746 9.20465 41.4898 9.4212 41.0334 9.5902C40.5351 9.77472 40.1898 9.90257 40.1216 9.88552C39.6856 9.73571 39.2353 9.63096 38.7779 9.57292C38.5378 9.55131 38.2841 9.57171 38.0378 9.59152C37.8055 9.61021 37.5797 9.62836 37.3782 9.61024C37.3429 9.60704 37.3561 9.5443 37.3678 9.48873C37.3732 9.46345 37.3782 9.43965 37.3782 9.42361C37.3782 9.4077 37.3719 9.38327 37.3652 9.35713C37.3502 9.29895 37.3331 9.23231 37.3782 9.23231C38.3293 9.0825 38.8232 9.04533 39.3053 9.00904C39.8142 8.97075 40.3098 8.93344 41.3161 8.76574C42.2829 8.6046 42.767 8.48662 43.2442 8.37033C43.7342 8.25092 44.2169 8.1333 45.2073 7.97257Z" fill="#9DDCD8"/>
<path d="M43.4565 1.33814L43.7749 1.8558L43.0004 2.66297L44.0735 2.70963L44.3115 4.16067L45.7812 4.22132L46.0238 5.67703L46.677 5.00516L46.3317 5.87766L46.7656 5.04249L46.9523 5.25245C46.8939 5.15129 46.8414 5.06318 46.7897 4.97644C46.6386 4.72311 46.4944 4.48139 46.2337 3.96004C46.0461 3.5866 45.7162 3.26454 45.4344 2.98941C44.9662 2.53239 44.6307 2.20487 45.3006 1.98644C46.0866 1.73011 46.2218 2.17224 46.4433 2.89657C46.5241 3.16108 46.6165 3.46323 46.7563 3.78274C47.0669 4.49718 47.2493 4.68841 47.5486 5.00215C47.6988 5.15966 47.8785 5.34806 48.1187 5.64904C48.123 5.65477 48.1274 5.66059 48.1319 5.66647C48.1855 5.73722 48.2468 5.81807 48.2167 5.88699C48.1845 5.96049 48.0709 5.96615 47.9784 5.97076L47.9741 5.97097C47.9302 5.97317 47.9028 5.99394 47.874 6.01582C47.8415 6.04045 47.8072 6.06648 47.7454 6.06895H47.7128L47.9507 6.3349L49.6397 5.86833L50.8108 7.1794L51.2774 6.36756L50.9088 7.23538L51.6507 6.65684L51.7066 8.1312L53.1623 8.37382L53.2183 9.84819L54.0582 9.32563L54.4034 10.2588L54.3754 9.26964L54.9866 9.97417L54.3661 8.95704L55.067 8.12789L54.9507 8.02575L54.0348 7.89325L52.9828 6.29875L50.6278 4.23202L48.9119 3.39549L47.8607 1.80371L46.4575 0.572237L45.8232 0.736023L45.5365 0.00558375C45.5017 0.00188555 45.4667 1.14441e-05 45.4314 1.14441e-05C45.3638 1.14441e-05 45.2968 0.0069013 45.2315 0.0203281L44.9647 0.680037L44.4871 0.48539L44.086 0.817306L44.1855 1.3239L43.7086 1.12954L43.4565 1.33814Z" fill="#9DDCD8"/>
<path fill-rule="evenodd" clip-rule="evenodd" d="M24.6781 32.9622L24.4914 32.0711L24.3328 31.1333L22.9751 31.5298L22.2565 30.3074L13.7603 28.7771L13.2937 29.3276L15.9951 31.6605L19.821 31.8378L23.4136 33.2095L23.8802 32.2157L24.6781 32.9622ZM21.8299 32.0265C21.9561 32.0351 22.0819 32.0437 22.3125 32.0991V32.0851C22.4896 32.1263 22.6901 32.1093 22.8623 32.0947C23.1573 32.0697 23.3689 32.0517 23.2364 32.3463C23.1039 32.6406 22.9492 32.56 22.7266 32.4439C22.5962 32.3759 22.4426 32.2958 22.2565 32.2717C22.0082 32.2395 21.8845 32.2039 21.7626 32.1688C21.6372 32.1327 21.5136 32.0972 21.2581 32.0664C21.2377 32.0641 21.2162 32.0805 21.1947 32.097C21.1719 32.1144 21.1491 32.1319 21.1274 32.1271C21.1057 32.1222 21.0915 32.0924 21.0783 32.0648C21.066 32.039 21.0546 32.0151 21.0388 32.0151C20.8292 31.9256 20.7159 31.9003 20.5999 31.8744C20.486 31.849 20.3696 31.823 20.157 31.7351C19.9953 31.6683 19.7799 31.6406 19.5967 31.617C19.2937 31.578 19.0787 31.5504 19.3405 31.3759C19.6564 31.1653 19.7795 31.2478 20.0198 31.4089C20.0989 31.4619 20.1907 31.5234 20.3063 31.5858C20.5961 31.7517 20.9114 31.8683 21.2394 31.9311C21.2454 31.9331 21.2521 31.9208 21.2601 31.9063C21.2709 31.8867 21.2839 31.8631 21.3001 31.8658C21.3281 31.8704 21.3281 31.9498 21.3281 31.9498C21.5711 32.0087 21.7007 32.0176 21.8299 32.0265Z" fill="#9DDCD8"/>
<path d="M82.1174 16.4514C82.2132 15.0861 82.8493 14.4034 84.0255 14.4034H95.297C96.5691 14.4034 97.2051 15.0861 97.2051 16.4514V39.5408C97.2141 39.6087 97.2089 39.6777 97.1898 39.7435C97.1708 39.8092 97.1383 39.8701 97.0945 39.9223C96.9749 39.9954 96.8351 40.0269 96.6963 40.0121H94.8988C94.76 40.0269 94.6202 39.9954 94.5006 39.9223C94.4581 39.8695 94.4268 39.8084 94.4087 39.7427C94.3906 39.677 94.3861 39.6083 94.3955 39.5408V16.9283H84.7445L84.4181 21.3891C84.2043 24.2171 84.0015 26.7009 83.8098 28.8405C83.6631 30.721 83.3314 32.5819 82.8198 34.3954C82.425 35.8112 81.7219 37.119 80.7624 38.2222C79.7286 39.2973 78.4301 40.0723 77.0015 40.4666C76.88 40.5111 76.7469 40.5111 76.6254 40.4666C76.4927 40.4329 76.3876 40.2926 76.3157 40.0457L75.9894 38.7833C75.9175 38.5139 75.923 38.3456 75.9894 38.2727C76.0809 38.1956 76.1835 38.1331 76.2936 38.0875C77.3601 37.6701 78.3096 36.9939 79.0589 36.118C79.7713 35.1778 80.275 34.0926 80.5356 32.9366C80.9128 31.3352 81.1533 29.7039 81.2546 28.0606C81.3984 26.1267 81.5662 23.77 81.7579 20.9907L82.1174 16.4514Z" fill="white"/>
<path d="M116.181 38.3344C116.199 38.5155 116.159 38.6976 116.069 38.8548C115.979 39.0119 115.842 39.1362 115.678 39.2097C114.572 39.6799 113.409 40.0006 112.221 40.1636C111.052 40.3279 109.873 40.4122 108.692 40.4161C107.412 40.4538 106.135 40.2814 104.909 39.9055C104.045 39.632 103.247 39.1748 102.57 38.5644C102.015 38.0452 101.599 37.3903 101.364 36.6623C101.134 35.9371 101.018 35.1797 101.021 34.4179C101.016 33.5466 101.173 32.6821 101.486 31.8705C101.8 31.0793 102.288 30.3712 102.913 29.8C103.608 29.1791 104.424 28.7127 105.308 28.4309C106.412 28.0764 107.567 27.9077 108.726 27.9316H113.515V26.9608C113.52 26.3944 113.459 25.8293 113.333 25.2775C113.227 24.7839 112.992 24.3283 112.652 23.9589C112.259 23.5662 111.777 23.2772 111.248 23.1173C110.489 22.8887 109.699 22.7845 108.908 22.8087C108.033 22.8157 107.16 22.8945 106.298 23.0444C105.474 23.1709 104.661 23.3584 103.864 23.6055C103.738 23.6498 103.605 23.6689 103.471 23.6616C103.372 23.6616 103.3 23.5549 103.25 23.3866L102.891 22.0624C102.869 22.0066 102.86 21.9468 102.863 21.8871C102.866 21.8273 102.882 21.7689 102.909 21.7158C102.936 21.6627 102.975 21.6161 103.021 21.5791C103.067 21.5421 103.121 21.5156 103.178 21.5013C103.638 21.323 104.107 21.1694 104.583 21.0412C105.086 20.9066 105.612 20.7887 106.154 20.6877C106.702 20.5853 107.256 20.5179 107.813 20.4857C108.366 20.4465 108.88 20.4296 109.362 20.4296C111.692 20.4296 113.414 20.9533 114.527 22.0007C115.633 23.0443 116.186 24.5818 116.186 26.6017L116.181 38.3344ZM113.482 30.2994H108.836C108.318 30.3039 107.801 30.3395 107.288 30.406C106.689 30.4787 106.109 30.6592 105.573 30.9391C105.02 31.2317 104.55 31.6624 104.207 32.1903C103.805 32.8652 103.612 33.6472 103.654 34.4347C103.632 35.0726 103.775 35.7052 104.069 36.2695C104.333 36.7492 104.714 37.1528 105.175 37.4422C105.667 37.7443 106.211 37.9499 106.779 38.0482C107.396 38.1602 108.021 38.2147 108.648 38.2109C108.864 38.2109 109.157 38.211 109.533 38.1773C109.909 38.1436 110.318 38.1156 110.772 38.0651C111.239 38.0157 111.703 37.937 112.16 37.8294C112.605 37.7234 113.044 37.5942 113.476 37.4422L113.482 30.2994Z" fill="white"/>
<path d="M120.5 21.3105C120.49 21.2411 120.496 21.1702 120.518 21.1034C120.539 21.0367 120.576 20.9761 120.625 20.9264C120.674 20.8768 120.734 20.8394 120.8 20.8175C120.865 20.7955 120.935 20.7895 121.004 20.7999H122.624C122.693 20.7895 122.763 20.7955 122.828 20.8175C122.894 20.8394 122.954 20.8768 123.003 20.9264C123.052 20.9761 123.089 21.0367 123.11 21.1034C123.132 21.1702 123.138 21.2411 123.127 21.3105V36.2134L123.238 36.2527L123.725 35.5008L124.444 34.3786C124.698 33.9802 124.936 33.5987 125.163 33.2284C125.39 32.858 125.555 32.6224 125.649 32.4989C125.815 32.2296 126.081 31.8256 126.44 31.2757C126.8 30.7258 127.204 30.1086 127.646 29.4129C128.088 28.7171 128.564 27.9877 129.073 27.219L130.511 25.0306L131.755 23.1285C132.124 22.5562 132.417 22.1241 132.635 21.8324C132.789 21.5435 132.991 21.2835 133.232 21.0637C133.507 20.892 133.829 20.8152 134.15 20.8448H134.941C135.11 20.8249 135.281 20.8446 135.441 20.9024C135.601 20.9603 135.745 21.0547 135.863 21.1784C135.982 21.3021 136.07 21.4518 136.122 21.6158C136.174 21.7798 136.188 21.9537 136.163 22.1241V39.552C136.173 39.6195 136.168 39.6882 136.15 39.7539C136.132 39.8196 136.101 39.8807 136.058 39.9335C135.939 40.0066 135.799 40.0381 135.66 40.0233H134.062C133.925 40.0386 133.786 40.007 133.669 39.9335C133.625 39.8814 133.593 39.8204 133.574 39.7547C133.555 39.689 133.549 39.6199 133.558 39.552V24.7557H133.376C133.304 24.8511 133.171 25.0587 132.983 25.3785L132.353 26.3997C132.126 26.7645 131.91 27.1067 131.706 27.4209C131.501 27.7352 131.363 27.9484 131.291 28.0438L124.018 39.0414C123.847 39.3498 123.613 39.6177 123.332 39.8269C123.079 39.9692 122.792 40.0372 122.502 40.0233H121.817C121.643 40.0558 121.464 40.0457 121.295 39.9939C121.127 39.942 120.972 39.8499 120.846 39.7252C120.719 39.6006 120.624 39.4469 120.567 39.2772C120.511 39.1075 120.496 38.9266 120.522 38.7496L120.5 21.3105ZM128.205 18.505C127.063 18.5079 125.951 18.1358 125.036 17.4445C124.072 16.7333 123.253 15.8397 122.624 14.813C122.571 14.7296 122.535 14.636 122.519 14.538C122.519 14.4314 122.552 14.3136 122.696 14.1902L123.31 13.6796C123.504 13.5617 123.636 13.5224 123.708 13.5729C123.813 13.6466 123.909 13.7312 123.996 13.8254C124.58 14.5741 125.301 15.201 126.12 15.6715C126.791 16.0719 127.553 16.2921 128.332 16.3111C128.978 16.2885 129.611 16.1198 130.185 15.8174C131.105 15.2902 131.918 14.5893 132.579 13.7525C132.751 13.5842 132.867 13.5 132.939 13.5C133.042 13.5093 133.142 13.5461 133.226 13.6066L133.84 14.0836C134.032 14.2519 134.104 14.3978 134.056 14.5212C134.012 14.6372 133.952 14.7467 133.879 14.8466C133.148 15.9804 132.182 16.938 131.047 17.6522C130.19 18.184 129.209 18.4763 128.205 18.4994V18.505Z" fill="white"/>
<path d="M147.38 39.9055C147.255 39.9885 147.107 40.0261 146.959 40.0121H145.46C145.302 40.0286 145.142 39.9911 145.007 39.9055C144.956 39.8385 144.918 39.7619 144.896 39.68C144.874 39.5981 144.869 39.5126 144.88 39.4285V23.1566H139.117C138.95 23.1789 138.782 23.1346 138.647 23.0331C138.57 22.9197 138.533 22.7833 138.541 22.646V21.4396C138.534 21.2864 138.57 21.1343 138.647 21.0019C138.71 20.9452 138.785 20.9028 138.866 20.8777C138.947 20.8525 139.033 20.8451 139.117 20.856H153.59C153.834 20.856 153.983 20.9065 154.044 21.0019C154.112 21.1372 154.142 21.2883 154.132 21.4396V22.646C154.143 22.7812 154.112 22.9164 154.044 23.0331C153.983 23.1173 153.834 23.1566 153.59 23.1566H147.507V39.4285C147.518 39.5126 147.512 39.5981 147.49 39.68C147.469 39.7619 147.431 39.8385 147.38 39.9055Z" fill="white"/>
<path d="M171.416 26.3885C171.961 26.5706 172.481 26.8213 172.965 27.1348C173.354 27.3973 173.696 27.7256 173.977 28.1055C174.242 28.4815 174.454 28.8932 174.607 29.3287C174.762 29.7776 174.911 30.2714 175.055 30.81L177.267 39.2827C177.308 39.4333 177.308 39.5921 177.267 39.7427C177.229 39.9223 177.057 40.0121 176.742 40.0121H172.566C172.432 40.0105 172.3 39.9858 172.174 39.9391C172.024 39.8942 171.919 39.7484 171.847 39.5015L169.635 31.646C169.481 31.102 169.256 30.5812 168.966 30.0974C168.737 29.7174 168.422 29.3981 168.048 29.166C167.658 28.9369 167.231 28.7811 166.787 28.7059C166.238 28.6169 165.683 28.5756 165.128 28.5824H162.174L162.213 39.4285C162.213 39.6979 162.163 39.8606 162.069 39.9223C161.91 39.9956 161.735 40.0265 161.56 40.0121H157.385C157.218 40.0225 157.051 39.9917 156.898 39.9223C156.793 39.8606 156.737 39.6979 156.737 39.4285V15.0262C156.737 14.7569 156.793 14.5941 156.898 14.5324C157.051 14.463 157.218 14.4322 157.385 14.4426H161.599C161.772 14.4282 161.945 14.4591 162.102 14.5324C162.196 14.5941 162.224 14.7569 162.174 15.0262V24.3405H165.056C165.426 24.3384 165.796 24.3084 166.162 24.2507C166.604 24.1775 167.028 24.0152 167.408 23.7733C167.788 23.5315 168.117 23.2149 168.374 22.8423C168.742 22.3011 169.005 21.6936 169.148 21.0524L170.769 14.8803C170.774 14.7858 170.805 14.6946 170.859 14.6172C170.913 14.5398 170.987 14.4793 171.073 14.4426C171.207 14.3966 171.347 14.372 171.488 14.3697H175.52C175.829 14.3697 176.006 14.4595 176.04 14.6447C176.085 14.7926 176.085 14.9512 176.04 15.0991L174.38 21.6416C174.21 22.5763 173.85 23.4648 173.323 24.2503C172.795 25.0358 172.112 25.7009 171.316 26.2033L171.416 26.3885Z" fill="white"/>
<path d="M196.37 37.6611C196.38 37.9344 196.336 38.2069 196.243 38.4634C196.11 38.7366 195.89 38.956 195.618 39.0863C195.047 39.3627 194.45 39.5826 193.837 39.7427C193.199 39.9172 192.551 40.0521 191.896 40.1467C191.236 40.2403 190.572 40.3132 189.905 40.3656C189.236 40.4161 188.6 40.4385 187.997 40.4385C186.634 40.4723 185.273 40.3118 183.954 39.9616C183.02 39.7134 182.146 39.2721 181.388 38.6654C180.768 38.158 180.295 37.4888 180.022 36.7296C179.754 35.9624 179.621 35.1533 179.629 34.3393C179.618 33.4457 179.776 32.5582 180.094 31.7246C180.405 30.9388 180.884 30.2334 181.498 29.6597C182.183 29.0415 182.987 28.5752 183.86 28.2906C184.947 27.9421 186.083 27.7753 187.223 27.7969H191.188V27.2358C191.188 26.9034 191.151 26.5721 191.078 26.2482C191.008 25.9377 190.852 25.6536 190.63 25.429C190.355 25.1736 190.028 24.9821 189.673 24.8679C189.148 24.7049 188.601 24.6309 188.052 24.6491C187.693 24.6491 187.283 24.6491 186.83 24.7052C186.376 24.7613 185.917 24.7894 185.458 24.8511C184.999 24.9128 184.562 24.9858 184.131 25.0699C183.7 25.1541 183.312 25.2439 182.975 25.3449C182.766 25.4211 182.537 25.4211 182.328 25.3449C182.256 25.2869 182.196 25.2148 182.153 25.1328C182.109 25.0509 182.082 24.9607 182.074 24.8679L181.52 22.3093C181.455 22.1282 181.455 21.9293 181.52 21.7482C181.612 21.6167 181.745 21.5199 181.897 21.4733C183.002 21.0797 184.143 20.7996 185.303 20.6372C186.478 20.465 187.662 20.3787 188.849 20.3791C191.459 20.3791 193.371 20.9402 194.584 22.0624C195.797 23.1846 196.405 24.8586 196.409 27.0843L196.37 37.6611ZM191.149 31.343H188.307C187.937 31.3429 187.567 31.3672 187.201 31.416C186.828 31.4618 186.467 31.5799 186.139 31.7639C185.808 31.9524 185.531 32.2227 185.331 32.5494C185.095 32.9705 184.981 33.4513 185.005 33.9353C184.971 34.2837 185.032 34.6348 185.181 34.9503C185.33 35.2659 185.562 35.534 185.851 35.7253C186.555 36.1012 187.346 36.2776 188.141 36.2359H188.694C188.932 36.2359 189.192 36.2022 189.468 36.1629C189.745 36.1236 190.021 36.0788 190.314 36.017C190.584 35.961 190.848 35.8821 191.105 35.7814L191.149 31.343Z" fill="white"/>
<path d="M218.012 29.1267L216.535 32.6111L214.771 36.4827C214.627 36.8843 214.362 37.2297 214.013 37.4703C213.66 37.6602 213.262 37.7494 212.863 37.7284H211.099C210.681 37.7599 210.263 37.6704 209.893 37.4703C209.574 37.2131 209.33 36.8713 209.191 36.4827L207.459 32.6841L206.021 29.3175H205.878V39.3444C205.878 39.6586 205.817 39.855 205.695 39.9055C205.504 39.9923 205.295 40.029 205.087 40.0121H201.536C201.333 40.025 201.13 39.9885 200.944 39.9055C200.812 39.8325 200.745 39.6361 200.745 39.3444V22.9546C200.745 21.5406 201.466 20.8336 202.908 20.8336H205.12C205.572 20.8248 206.02 20.9127 206.436 21.0917C206.896 21.3629 207.247 21.7902 207.426 22.2981L210.02 27.8474L211.856 32.05H212.072L214.124 27.4827L216.535 22.4776C216.733 21.961 217.07 21.5117 217.509 21.1815C217.995 20.9206 218.542 20.8002 219.09 20.8336H221.148C222.586 20.8336 223.305 21.5163 223.305 22.8816V39.3444C223.305 39.6586 223.255 39.855 223.144 39.9055C222.947 39.9954 222.73 40.0321 222.514 40.0121H218.985C218.781 40.0248 218.576 39.9883 218.388 39.9055C218.261 39.8325 218.194 39.6361 218.194 39.3444V29.1267H218.012Z" fill="white"/>
<path d="M235.826 20.3623C238.636 20.3623 240.743 21.0749 242.148 22.5001C243.553 23.9253 244.253 25.964 244.25 28.6161C244.25 29.8842 244.012 30.7483 243.531 31.2084C242.986 31.6948 242.275 31.9447 241.551 31.9042H232.342C232.343 32.5685 232.473 33.2262 232.724 33.84C232.922 34.3191 233.232 34.7424 233.627 35.0736C234.022 35.4049 234.49 35.6342 234.991 35.7421C235.536 35.8636 236.092 35.9238 236.65 35.9216C237.365 35.9192 238.078 35.8345 238.774 35.6692C239.463 35.5069 240.136 35.2853 240.787 35.0071C240.975 34.9245 241.181 34.8935 241.385 34.9173C241.525 34.9904 241.634 35.1146 241.689 35.2652L242.839 37.8967C242.885 37.9722 242.914 38.0573 242.924 38.1457C242.934 38.234 242.924 38.3234 242.895 38.4073C242.804 38.5609 242.674 38.6869 242.518 38.7721C241.57 39.3802 240.521 39.808 239.421 40.0345C238.344 40.2767 237.245 40.4046 236.142 40.4161C233 40.4161 230.672 39.6249 229.156 38.0426C227.641 36.4603 226.885 33.9522 226.889 30.5182C226.865 29.062 227.079 27.6119 227.519 26.2258C227.897 25.0453 228.511 23.9566 229.322 23.0275C230.096 22.1539 231.057 21.4724 232.132 21.0356C233.309 20.5698 234.563 20.3411 235.826 20.3623ZM235.931 24.7445C235.477 24.7307 235.026 24.8185 234.609 25.0018C234.192 25.1851 233.82 25.4593 233.52 25.805C232.864 26.5557 232.474 27.5079 232.414 28.5095H239.145C239.15 28.0054 239.096 27.5025 238.984 27.0113C238.893 26.5829 238.716 26.1781 238.464 25.8218C238.21 25.4818 237.875 25.2118 237.491 25.0363C237 24.8319 236.472 24.7362 235.942 24.7557L235.931 24.7445Z" fill="white"/>
<path d="M252.778 39.9055C252.573 40.0102 252.343 40.053 252.114 40.0289H248.514C247.961 40.0289 247.717 39.7877 247.717 39.2995V21.5294C247.717 21.0693 247.983 20.8336 248.514 20.8336H252.114C252.343 20.8106 252.574 20.8554 252.778 20.9627C252.889 21.0468 252.944 21.2376 252.944 21.5238V27.7688H259.675V21.5294C259.675 21.0693 259.94 20.8336 260.471 20.8336H264.099C264.325 20.8077 264.553 20.8528 264.752 20.9627C264.869 21.124 264.921 21.3249 264.896 21.5238V39.277C264.924 39.4902 264.872 39.7062 264.752 39.883C264.552 39.991 264.324 40.0341 264.099 40.0065H260.471C259.918 40.0065 259.675 39.7652 259.675 39.277V31.9434H252.971V39.2827C252.971 39.6025 252.889 39.7989 252.778 39.9055Z" fill="white"/>
<path d="M271.45 40.0121C270.515 40.0121 269.901 39.8269 269.613 39.451C269.304 38.9957 269.152 38.449 269.182 37.8967V21.5294C269.182 21.0693 269.447 20.8336 269.973 20.8336H273.573C273.804 20.8108 274.036 20.8556 274.243 20.9627C274.306 21.0397 274.353 21.1295 274.381 21.2261C274.409 21.3227 274.416 21.4241 274.403 21.5238V26.8206H278.866C280.29 26.7578 281.71 27.0145 283.025 27.5724C283.931 27.9778 284.727 28.5973 285.348 29.3792C285.845 30.0121 286.184 30.7568 286.338 31.5506C286.457 32.159 286.523 32.7767 286.537 33.3967C286.546 34.2837 286.369 35.1625 286.018 35.975C285.667 36.7875 285.151 37.5152 284.502 38.1099C283.843 38.7092 283.079 39.1791 282.251 39.4959C281.354 39.8437 280.401 40.0169 279.441 40.0065L271.45 40.0121ZM281.178 33.3293C281.194 32.691 280.968 32.0707 280.548 31.5955C280.302 31.3449 280.006 31.1514 279.679 31.0283C279.352 30.9053 279.003 30.8557 278.656 30.883H274.408V35.8487H278.623C279.057 35.8631 279.488 35.7767 279.884 35.5962C280.19 35.4439 280.46 35.2256 280.675 34.9565C280.858 34.7105 280.991 34.4302 281.067 34.1317C281.136 33.8698 281.173 33.6004 281.178 33.3293Z" fill="white"/>
</svg>
